# xmcd
#
# Track frame offsets:
#	150
#	11755
#	23292
#	33975
#	46520
#	59992
#	70815
#	81380
#	93057
#	103192
#	114962
#	127522
#
# Disc length: 1854 seconds
#
# Revision: 0
# Processed by: cddbd v1.4PL0 Copyright (c) Steve Scherf et al.
# Submitted via: EasyCDDAExtractor 4.6.9.1
#
DISCID=88073c0c
DTITLE=Wilson Pickett - In The Midnight hour
DYEAR=1965
DGENRE=R&B
TTITLE0=In The Midnight Hour
TTITLE1=Teardrops Will Fall
TTITLE2=Take A Little Love
TTITLE3=For Better Or Worse
TTITLE4=I Found A Love
TTITLE5=That's A Man's Way
TTITLE6=I'm Gonna Cry
TTITLE7=Don't Fight It
TTITLE8=Take This Love I've Got
TTITLE9=Come Home Baby
TTITLE10=I'm Not Tired
TTITLE11=Let's Kiss And Make Up
EXTD=
EXTT0=
EXTT1=
EXTT2=
EXTT3=
EXTT4=
EXTT5=
EXTT6=
EXTT7=
EXTT8=
EXTT9=
EXTT10=
EXTT11=
PLAYORDER=
